# xmcd
#
# Track frame offsets:
# 150
# 15847
# 35179
# 59794
# 76912
# 92399
# 112584
# 148991
# 169491
# 191350
# 208414
# 223627
# 248889
# 270133
#
# Disc length: 3844 seconds
#
#
# Revision: 0
# Processed by: cddbd v1.5.2PL0 Copyright (c) Steve Scherf et al.
# Submitted via: FreeRIP 2.40 
#
DISCID=c20f020e
DTITLE=The John Butler Trio - Grand National
DYEAR=2007
DGENRE=Roots
TTITLE0=Better Than
TTITLE1=Daniella
TTITLE2=Funky Tonight
TTITLE3=Caroline
TTITLE4=Good Excuse
TTITLE5=Used to Get High
TTITLE6=Gov Did Nothin'
TTITLE7=Groovin' Slowly
TTITLE8=Devil Running
TTITLE9=Losing You
TTITLE10=Nowhere Man
TTITLE11=Fire In the Sky
TTITLE12=Gonna Take It
TTITLE13=Recognize Me
EXTD=
EXTT0=
EXTT1=
EXTT2=
EXTT3=
EXTT4=
EXTT5=
EXTT6=
EXTT7=
EXTT8=
EXTT9=
EXTT10=
EXTT11=
EXTT12=
EXTT13=
PLAYORDER=
